# xmcd
#
# Track frame offsets:
#	225
#	9306
#	19321
#	32636
#	47494
#	61700
#	72794
#	81479
#	93330
#	103905
#	115778
#	126302
#	138977
#	147757
#	159520
#	167305
#	179922
#	190980
#	200878
#	211936
#	219158
#	228886
#	248360
#	266281
#	272567
#	278095
#	291327
#	305547
#	316249
#
# Disc length: 4402 seconds
#
# Revision: 4
# Processed by: cddbd v1.5.2PL0 Copyright (c) Steve Scherf et al.
# Submitted via: audiograbber 1.83.01
#
DISCID=9b112f1d
DTITLE=Various Artist - PORTA 2
DYEAR=1900
DGENRE=
TTITLE0=John Hardy-White Stars
TTITLE1=Toulam se-White Stars
TTITLE2=Bedna vod whisky-Hoboes
TTITLE3=Island-Scarabeus
TTITLE4=Ohrada-Scarabeus
TTITLE5=Pisen karavany-Perpetual Vagabonds
TTITLE6=Listopad-Perpetual Vagabonds
TTITLE7=Vzdalena osada-Cervanek
TTITLE8=V dali za horama-Desperados
TTITLE9=Ma cesta vede buhvi kam-M.Tucny a Rivals
TTITLE10=Walk On By-M.Tucny a Rivals
TTITLE11=Chladne srdce-Caravell Western
TTITLE12=Vezeni v Tupelo-Gauchos
TTITLE13=Nerikej nikdy good bye-Bluegrass Ramblers
TTITLE14=Darling-Bluegrass Hoppers
TTITLE15=Jackson-Bluegrass Hoppers
TTITLE16=Potulny hrac-Bluegrass Hoppers
TTITLE17=Sklenka-Bluegrass Hoppers
TTITLE18=Bila kytka-Blizzards
TTITLE19=Karbanik nema si zenskou brat-Stonewall Jacksons
TTITLE20=That´s Where My Money Goes-Truckers
TTITLE21=Ohio-Strangers
TTITLE22=Zustan se mnou, divko ma-Compardos
TTITLE23=San Francisco Bay Blues-Folksingers
TTITLE24=Kristalova studanka-Folksingers
TTITLE25=Mary JaneDrnkaci
TTITLE26=Cikan-Drnkaci
TTITLE27=Ovcak-Spiritual kvintet
TTITLE28=Jolly-Minnesengri
EXTD=
EXTT0=
EXTT1=
EXTT2=
EXTT3=
EXTT4=
EXTT5=
EXTT6=
EXTT7=
EXTT8=
EXTT9=
EXTT10=
EXTT11=
EXTT12=
EXTT13=
EXTT14=
EXTT15=
EXTT16=
EXTT17=
EXTT18=
EXTT19=
EXTT20=
EXTT21=
EXTT22=
EXTT23=
EXTT24=
EXTT25=
EXTT26=
EXTT27=
EXTT28=
PLAYORDER=
